<svg width="40" height="40" viewBox="0 0 40 40" fill="none" xmlns="http://www.w3.org/2000/svg">
<rect width="40" height="40" rx="3" fill="#333333"/>
<path d="M15.062 23.35C14.5593 23.6967 13.9873 23.9567 13.346 24.13C12.722 24.3207 12.098 24.416 11.474 24.416C10.0527 24.3987 8.978 23.9913 8.25 23.194C7.522 22.3967 7.158 21.2267 7.158 19.684V12.82H5.104V10.22H7.158V7.204L10.85 6.762V10.22H14.022L13.658 12.82H10.85V19.606C10.85 20.2647 10.9627 20.7413 11.188 21.036C11.4133 21.3307 11.76 21.478 12.228 21.478C12.696 21.478 13.216 21.322 13.788 21.01L15.062 23.35ZM21.013 6.138C22.2263 6.138 23.275 6.36333 24.159 6.814C25.043 7.24733 25.7103 7.84533 26.161 8.608C26.629 9.35333 26.863 10.1853 26.863 11.104C26.863 12.0573 26.655 12.976 26.239 13.86C25.8403 14.744 25.147 15.7407 24.159 16.85C23.1883 17.9593 21.767 19.3893 19.895 21.14H27.253L26.837 24H15.683V21.322C17.867 19.138 19.4443 17.5087 20.415 16.434C21.3856 15.3593 22.0703 14.4493 22.469 13.704C22.8676 12.9587 23.067 12.196 23.067 11.416C23.067 10.6707 22.8503 10.0813 22.417 9.648C21.9836 9.21467 21.403 8.998 20.675 8.998C20.0336 8.998 19.4616 9.14533 18.959 9.44C18.4563 9.71733 17.9276 10.1853 17.373 10.844L15.163 9.076C16.6536 7.11733 18.6036 6.138 21.013 6.138Z" fill="#F2994A"/>
<path d="M7 32L33 32" stroke="#F2994A" stroke-width="3" stroke-linecap="round"/>
</svg>
